<?xml version="1.0" encoding="iso-8859-1"?>
<!-- Generator: Adobe Illustrator 19.0.0, SVG Export Plug-In . SVG Version: 6.00 Build 0)  -->
<svg version="1.1" id="Layer_1" xmlns="http://www.w3.org/2000/svg" xmlns:xlink="http://www.w3.org/1999/xlink" x="0px" y="0px"
	 viewBox="0 0 512 512" style="enable-background:new 0 0 512 512;" xml:space="preserve">
<circle style="fill:#71E2EF;" cx="256" cy="256" r="256"/>
<path style="fill:#38C6D9;" d="M123.547,353.401l157.387,157.387c122.706-11.862,220.06-110.342,230.181-233.55L390.37,157.968
	L123.547,353.401z"/>
<path style="fill:#FFFFFF;" d="M374.922,359.136H137.078c-10.947,0-19.82-8.875-19.82-19.82V172.684
	c0-10.947,8.875-19.82,19.82-19.82H374.92c10.947,0,19.82,8.875,19.82,19.82v166.631
	C394.742,350.261,385.867,359.136,374.922,359.136z"/>
<path style="fill:#CCCCCC;" d="M374.922,152.864h-120.07v206.272h120.07c10.947,0,19.82-8.873,19.82-19.82V172.684
	C394.742,161.739,385.867,152.864,374.922,152.864z"/>
<path style="fill:#2D2D2D;" d="M394.742,168.726c0-8.759-7.101-15.86-15.862-15.86H133.12c-8.761,0-15.862,7.101-15.862,15.86v10.5
	h277.483V168.726z"/>
<path style="fill:#141414;" d="M394.742,168.726c0-8.759-7.101-15.86-15.862-15.86H254.85v26.362h139.89v-10.502H394.742z"/>
<circle style="fill:#E03A00;" cx="140.481" cy="167.874" r="6.066"/>
<circle style="fill:#FFC61B;" cx="163.237" cy="167.874" r="6.066"/>
<circle style="fill:#3ECE3E;" cx="184.475" cy="167.874" r="6.066"/>
<path style="fill:#D3D3D3;" d="M199.111,284.444h113.778c15.71,0,28.444-12.734,28.444-28.444l0,0
	c0-15.71-12.734-28.444-28.444-28.444H199.111c-15.71,0-28.444,12.734-28.444,28.444l0,0
	C170.667,271.71,183.401,284.444,199.111,284.444z"/>
<path style="fill:#9E9E9E;" d="M312.889,227.556h-58.037v56.889h58.037c15.71,0,28.444-12.734,28.444-28.444l0,0
	C341.333,240.29,328.599,227.556,312.889,227.556z"/>
<path style="fill:#565656;" d="M325.311,270.186l-12.607-12.609c1.731-2.569,2.744-5.658,2.744-8.982
	c0-8.883-7.228-16.113-16.113-16.113s-16.112,7.228-16.112,16.113c0,8.885,7.227,16.112,16.112,16.112
	c3.069,0,5.93-0.877,8.375-2.374l12.728,12.729c0.674,0.674,1.555,1.01,2.438,1.01c0.883,0,1.764-0.336,2.438-1.01
	C326.658,273.713,326.658,271.532,325.311,270.186z M290.12,248.594c0-5.082,4.134-9.218,9.216-9.218s9.218,4.134,9.218,9.218
	c0,5.08-4.134,9.216-9.218,9.216C294.253,257.81,290.12,253.674,290.12,248.594z"/>
<g>
</g>
<g>
</g>
<g>
</g>
<g>
</g>
<g>
</g>
<g>
</g>
<g>
</g>
<g>
</g>
<g>
</g>
<g>
</g>
<g>
</g>
<g>
</g>
<g>
</g>
<g>
</g>
<g>
</g>
</svg>
